<mxfile host="app.diagrams.net" modified="2023-11-11T14:38:30.993Z" agent="Mozilla/5.0 (Windows NT 10.0; Win64; x64) AppleWebKit/537.36 (KHTML, like Gecko) Chrome/119.0.0.0 Safari/537.36" etag="OhakX7m1OCLG1kzBmYCI" version="22.1.0" type="github">
  <diagram name="Page-1" id="bDf4TTs_UNXsvx_9OTMm">
    <mxGraphModel dx="521" dy="563" grid="1" gridSize="10" guides="1" tooltips="1" connect="1" arrows="1" fold="1" page="1" pageScale="1" pageWidth="850" pageHeight="1100" math="0" shadow="0">
      <root>
        <mxCell id="0" />
        <mxCell id="1" parent="0" />
        <mxCell id="QZVTPYhpMqeoth4_HB92-8" style="edgeStyle=orthogonalEdgeStyle;rounded=0;orthogonalLoop=1;jettySize=auto;html=1;exitX=0.392;exitY=0.021;exitDx=0;exitDy=0;exitPerimeter=0;" parent="1" source="QZVTPYhpMqeoth4_HB92-1" target="QZVTPYhpMqeoth4_HB92-2" edge="1">
          <mxGeometry relative="1" as="geometry">
            <Array as="points">
              <mxPoint x="424" y="260" />
              <mxPoint x="100" y="260" />
            </Array>
          </mxGeometry>
        </mxCell>
        <mxCell id="QZVTPYhpMqeoth4_HB92-9" value="Phiếu trả lời yêu cầu đặt bàn" style="edgeLabel;html=1;align=center;verticalAlign=middle;resizable=0;points=[];" parent="QZVTPYhpMqeoth4_HB92-8" vertex="1" connectable="0">
          <mxGeometry x="0.0189" relative="1" as="geometry">
            <mxPoint x="-1" as="offset" />
          </mxGeometry>
        </mxCell>
        <mxCell id="QZVTPYhpMqeoth4_HB92-22" style="edgeStyle=orthogonalEdgeStyle;rounded=0;orthogonalLoop=1;jettySize=auto;html=1;exitX=0;exitY=1;exitDx=0;exitDy=0;entryX=0.5;entryY=1;entryDx=0;entryDy=0;" parent="1" source="QZVTPYhpMqeoth4_HB92-1" target="QZVTPYhpMqeoth4_HB92-2" edge="1">
          <mxGeometry relative="1" as="geometry">
            <Array as="points">
              <mxPoint x="393" y="440" />
              <mxPoint x="140" y="440" />
            </Array>
          </mxGeometry>
        </mxCell>
        <mxCell id="QZVTPYhpMqeoth4_HB92-23" value="Hóa đơn thanh toán" style="edgeLabel;html=1;align=center;verticalAlign=middle;resizable=0;points=[];" parent="QZVTPYhpMqeoth4_HB92-22" vertex="1" connectable="0">
          <mxGeometry x="-0.0097" y="-1" relative="1" as="geometry">
            <mxPoint as="offset" />
          </mxGeometry>
        </mxCell>
        <mxCell id="QZVTPYhpMqeoth4_HB92-24" style="edgeStyle=orthogonalEdgeStyle;rounded=0;orthogonalLoop=1;jettySize=auto;html=1;exitX=0.643;exitY=0.028;exitDx=0;exitDy=0;entryX=0.75;entryY=0;entryDx=0;entryDy=0;exitPerimeter=0;" parent="1" source="QZVTPYhpMqeoth4_HB92-1" target="QZVTPYhpMqeoth4_HB92-3" edge="1">
          <mxGeometry relative="1" as="geometry">
            <Array as="points">
              <mxPoint x="455" y="260" />
              <mxPoint x="735" y="260" />
            </Array>
          </mxGeometry>
        </mxCell>
        <mxCell id="QZVTPYhpMqeoth4_HB92-25" value="Phiếu yêu cầu gửi báo giá" style="edgeLabel;html=1;align=center;verticalAlign=middle;resizable=0;points=[];" parent="QZVTPYhpMqeoth4_HB92-24" vertex="1" connectable="0">
          <mxGeometry x="-0.0177" y="-2" relative="1" as="geometry">
            <mxPoint as="offset" />
          </mxGeometry>
        </mxCell>
        <mxCell id="QZVTPYhpMqeoth4_HB92-36" style="edgeStyle=orthogonalEdgeStyle;rounded=0;orthogonalLoop=1;jettySize=auto;html=1;exitX=1;exitY=1;exitDx=0;exitDy=0;entryX=0.5;entryY=1;entryDx=0;entryDy=0;" parent="1" source="QZVTPYhpMqeoth4_HB92-1" target="QZVTPYhpMqeoth4_HB92-3" edge="1">
          <mxGeometry relative="1" as="geometry">
            <Array as="points">
              <mxPoint x="482" y="440" />
              <mxPoint x="710" y="440" />
            </Array>
          </mxGeometry>
        </mxCell>
        <mxCell id="QZVTPYhpMqeoth4_HB92-37" value="Hóa đơn thanh toán" style="edgeLabel;html=1;align=center;verticalAlign=middle;resizable=0;points=[];" parent="QZVTPYhpMqeoth4_HB92-36" vertex="1" connectable="0">
          <mxGeometry x="-0.0898" relative="1" as="geometry">
            <mxPoint as="offset" />
          </mxGeometry>
        </mxCell>
        <mxCell id="QZVTPYhpMqeoth4_HB92-1" value="Quản lý bán hàng &lt;br&gt;của nhà hàng" style="shape=ellipse;html=1;dashed=0;whiteSpace=wrap;perimeter=ellipsePerimeter;" parent="1" vertex="1">
          <mxGeometry x="375" y="360" width="125" height="60" as="geometry" />
        </mxCell>
        <mxCell id="QZVTPYhpMqeoth4_HB92-5" style="edgeStyle=orthogonalEdgeStyle;rounded=0;orthogonalLoop=1;jettySize=auto;html=1;exitX=0;exitY=0;exitDx=0;exitDy=0;entryX=0.5;entryY=0;entryDx=0;entryDy=0;" parent="1" source="QZVTPYhpMqeoth4_HB92-2" target="QZVTPYhpMqeoth4_HB92-1" edge="1">
          <mxGeometry relative="1" as="geometry">
            <Array as="points">
              <mxPoint x="90" y="240" />
              <mxPoint x="437" y="240" />
            </Array>
          </mxGeometry>
        </mxCell>
        <mxCell id="QZVTPYhpMqeoth4_HB92-7" value="&lt;span style=&quot;font-size: 12px;&quot;&gt;Phiếu yêu cầu đặt bàn&lt;/span&gt;" style="edgeLabel;html=1;align=center;verticalAlign=middle;resizable=0;points=[];" parent="QZVTPYhpMqeoth4_HB92-5" vertex="1" connectable="0">
          <mxGeometry x="0.0047" y="1" relative="1" as="geometry">
            <mxPoint as="offset" />
          </mxGeometry>
        </mxCell>
        <mxCell id="QZVTPYhpMqeoth4_HB92-15" style="edgeStyle=orthogonalEdgeStyle;rounded=0;orthogonalLoop=1;jettySize=auto;html=1;exitX=0.5;exitY=0;exitDx=0;exitDy=0;entryX=0;entryY=0;entryDx=0;entryDy=0;" parent="1" source="QZVTPYhpMqeoth4_HB92-2" target="QZVTPYhpMqeoth4_HB92-1" edge="1">
          <mxGeometry relative="1" as="geometry">
            <Array as="points">
              <mxPoint x="150" y="365" />
              <mxPoint x="150" y="320" />
              <mxPoint x="393" y="320" />
            </Array>
          </mxGeometry>
        </mxCell>
        <mxCell id="QZVTPYhpMqeoth4_HB92-16" value="Phiếu yêu cầu gọi thêm món" style="edgeLabel;html=1;align=center;verticalAlign=middle;resizable=0;points=[];" parent="QZVTPYhpMqeoth4_HB92-15" vertex="1" connectable="0">
          <mxGeometry x="-0.0822" y="2" relative="1" as="geometry">
            <mxPoint x="28" as="offset" />
          </mxGeometry>
        </mxCell>
        <mxCell id="QZVTPYhpMqeoth4_HB92-19" style="edgeStyle=orthogonalEdgeStyle;rounded=0;orthogonalLoop=1;jettySize=auto;html=1;exitX=1;exitY=0.5;exitDx=0;exitDy=0;entryX=0;entryY=0.5;entryDx=0;entryDy=0;" parent="1" source="QZVTPYhpMqeoth4_HB92-2" target="QZVTPYhpMqeoth4_HB92-1" edge="1">
          <mxGeometry relative="1" as="geometry" />
        </mxCell>
        <mxCell id="QZVTPYhpMqeoth4_HB92-21" value="Phiếu yêu cầu thanh toán" style="edgeLabel;html=1;align=center;verticalAlign=middle;resizable=0;points=[];" parent="QZVTPYhpMqeoth4_HB92-19" vertex="1" connectable="0">
          <mxGeometry x="-0.0405" y="1" relative="1" as="geometry">
            <mxPoint as="offset" />
          </mxGeometry>
        </mxCell>
        <mxCell id="QZVTPYhpMqeoth4_HB92-2" value="Khách hàng" style="html=1;dashed=0;whiteSpace=wrap;" parent="1" vertex="1">
          <mxGeometry x="90" y="365" width="100" height="50" as="geometry" />
        </mxCell>
        <mxCell id="QZVTPYhpMqeoth4_HB92-30" style="edgeStyle=orthogonalEdgeStyle;rounded=0;orthogonalLoop=1;jettySize=auto;html=1;exitX=0.25;exitY=0;exitDx=0;exitDy=0;entryX=1;entryY=0;entryDx=0;entryDy=0;" parent="1" source="QZVTPYhpMqeoth4_HB92-3" target="QZVTPYhpMqeoth4_HB92-1" edge="1">
          <mxGeometry relative="1" as="geometry">
            <Array as="points">
              <mxPoint x="685" y="320" />
              <mxPoint x="482" y="320" />
            </Array>
          </mxGeometry>
        </mxCell>
        <mxCell id="QZVTPYhpMqeoth4_HB92-31" value="Hóa đơn mua hàng" style="edgeLabel;html=1;align=center;verticalAlign=middle;resizable=0;points=[];" parent="QZVTPYhpMqeoth4_HB92-30" vertex="1" connectable="0">
          <mxGeometry x="-0.02" y="-1" relative="1" as="geometry">
            <mxPoint as="offset" />
          </mxGeometry>
        </mxCell>
        <mxCell id="QZVTPYhpMqeoth4_HB92-34" style="edgeStyle=orthogonalEdgeStyle;rounded=0;orthogonalLoop=1;jettySize=auto;html=1;exitX=0;exitY=0.5;exitDx=0;exitDy=0;entryX=1;entryY=0.5;entryDx=0;entryDy=0;" parent="1" source="QZVTPYhpMqeoth4_HB92-3" target="QZVTPYhpMqeoth4_HB92-1" edge="1">
          <mxGeometry relative="1" as="geometry" />
        </mxCell>
        <mxCell id="QZVTPYhpMqeoth4_HB92-35" value="Phiếu giao hàng" style="edgeLabel;html=1;align=center;verticalAlign=middle;resizable=0;points=[];" parent="QZVTPYhpMqeoth4_HB92-34" vertex="1" connectable="0">
          <mxGeometry x="-0.1571" y="-1" relative="1" as="geometry">
            <mxPoint as="offset" />
          </mxGeometry>
        </mxCell>
        <mxCell id="QZVTPYhpMqeoth4_HB92-3" value="Nhà cung cấp" style="html=1;dashed=0;whiteSpace=wrap;" parent="1" vertex="1">
          <mxGeometry x="660" y="365" width="100" height="50" as="geometry" />
        </mxCell>
        <mxCell id="QZVTPYhpMqeoth4_HB92-10" style="edgeStyle=orthogonalEdgeStyle;rounded=0;orthogonalLoop=1;jettySize=auto;html=1;exitX=0.25;exitY=0;exitDx=0;exitDy=0;entryX=0.33;entryY=0.022;entryDx=0;entryDy=0;entryPerimeter=0;" parent="1" source="QZVTPYhpMqeoth4_HB92-2" target="QZVTPYhpMqeoth4_HB92-1" edge="1">
          <mxGeometry relative="1" as="geometry">
            <Array as="points">
              <mxPoint x="115" y="280" />
              <mxPoint x="416" y="280" />
            </Array>
          </mxGeometry>
        </mxCell>
        <mxCell id="QZVTPYhpMqeoth4_HB92-11" value="Phiếu yêu cầu đặt đồ ăn" style="edgeLabel;html=1;align=center;verticalAlign=middle;resizable=0;points=[];" parent="QZVTPYhpMqeoth4_HB92-10" vertex="1" connectable="0">
          <mxGeometry x="-0.0298" y="-2" relative="1" as="geometry">
            <mxPoint as="offset" />
          </mxGeometry>
        </mxCell>
        <mxCell id="QZVTPYhpMqeoth4_HB92-12" style="edgeStyle=orthogonalEdgeStyle;rounded=0;orthogonalLoop=1;jettySize=auto;html=1;exitX=0.222;exitY=0.085;exitDx=0;exitDy=0;entryX=0.5;entryY=0;entryDx=0;entryDy=0;exitPerimeter=0;" parent="1" source="QZVTPYhpMqeoth4_HB92-1" target="QZVTPYhpMqeoth4_HB92-2" edge="1">
          <mxGeometry relative="1" as="geometry">
            <Array as="points">
              <mxPoint x="403" y="300" />
              <mxPoint x="140" y="300" />
            </Array>
          </mxGeometry>
        </mxCell>
        <mxCell id="QZVTPYhpMqeoth4_HB92-13" value="Menu đồ ăn" style="edgeLabel;html=1;align=center;verticalAlign=middle;resizable=0;points=[];" parent="QZVTPYhpMqeoth4_HB92-12" vertex="1" connectable="0">
          <mxGeometry x="0.0441" relative="1" as="geometry">
            <mxPoint as="offset" />
          </mxGeometry>
        </mxCell>
        <mxCell id="QZVTPYhpMqeoth4_HB92-17" style="edgeStyle=orthogonalEdgeStyle;rounded=0;orthogonalLoop=1;jettySize=auto;html=1;exitX=0.04;exitY=0.307;exitDx=0;exitDy=0;exitPerimeter=0;entryX=0.8;entryY=0.002;entryDx=0;entryDy=0;entryPerimeter=0;" parent="1" source="QZVTPYhpMqeoth4_HB92-1" target="QZVTPYhpMqeoth4_HB92-2" edge="1">
          <mxGeometry relative="1" as="geometry">
            <mxPoint x="180" y="360" as="targetPoint" />
            <Array as="points">
              <mxPoint x="380" y="340" />
              <mxPoint x="170" y="340" />
            </Array>
          </mxGeometry>
        </mxCell>
        <mxCell id="QZVTPYhpMqeoth4_HB92-18" value="Phiếu trả lời yêu cầu gọi thêm món" style="edgeLabel;html=1;align=center;verticalAlign=middle;resizable=0;points=[];" parent="QZVTPYhpMqeoth4_HB92-17" vertex="1" connectable="0">
          <mxGeometry x="0.1209" relative="1" as="geometry">
            <mxPoint x="14" as="offset" />
          </mxGeometry>
        </mxCell>
        <mxCell id="QZVTPYhpMqeoth4_HB92-26" style="edgeStyle=orthogonalEdgeStyle;rounded=0;orthogonalLoop=1;jettySize=auto;html=1;exitX=0.5;exitY=0;exitDx=0;exitDy=0;entryX=0.72;entryY=0.068;entryDx=0;entryDy=0;entryPerimeter=0;" parent="1" source="QZVTPYhpMqeoth4_HB92-3" target="QZVTPYhpMqeoth4_HB92-1" edge="1">
          <mxGeometry relative="1" as="geometry">
            <Array as="points">
              <mxPoint x="710" y="290" />
              <mxPoint x="465" y="290" />
            </Array>
          </mxGeometry>
        </mxCell>
        <mxCell id="QZVTPYhpMqeoth4_HB92-27" value="Phiếu báo giá" style="edgeLabel;html=1;align=center;verticalAlign=middle;resizable=0;points=[];" parent="QZVTPYhpMqeoth4_HB92-26" vertex="1" connectable="0">
          <mxGeometry x="0.0977" relative="1" as="geometry">
            <mxPoint as="offset" />
          </mxGeometry>
        </mxCell>
        <mxCell id="QZVTPYhpMqeoth4_HB92-32" style="edgeStyle=orthogonalEdgeStyle;rounded=0;orthogonalLoop=1;jettySize=auto;html=1;exitX=0.562;exitY=0.012;exitDx=0;exitDy=0;entryX=0.927;entryY=0.008;entryDx=0;entryDy=0;entryPerimeter=0;exitPerimeter=0;" parent="1" source="QZVTPYhpMqeoth4_HB92-1" target="QZVTPYhpMqeoth4_HB92-3" edge="1">
          <mxGeometry relative="1" as="geometry">
            <Array as="points">
              <mxPoint x="445" y="240" />
              <mxPoint x="753" y="240" />
            </Array>
          </mxGeometry>
        </mxCell>
        <mxCell id="QZVTPYhpMqeoth4_HB92-33" value="Phiếu yêu cầu mua nguyên liệu" style="edgeLabel;html=1;align=center;verticalAlign=middle;resizable=0;points=[];" parent="QZVTPYhpMqeoth4_HB92-32" vertex="1" connectable="0">
          <mxGeometry x="-0.0166" relative="1" as="geometry">
            <mxPoint as="offset" />
          </mxGeometry>
        </mxCell>
      </root>
    </mxGraphModel>
  </diagram>
</mxfile>
